<?xml version="1.0" encoding="UTF-8" ?>
<!DOCTYPE svg PUBLIC "-//W3C//DTD SVG 1.1//EN" "http://www.w3.org/Graphics/SVG/1.1/DTD/svg11.dtd">
<svg width="1145pt" height="187pt" viewBox="0 0 1145 187" version="1.1" xmlns="http://www.w3.org/2000/svg">
<path fill="#dbad19" opacity="1.00" d=" M 71.18 2.26 C 94.74 2.26 118.29 2.30 141.85 2.24 C 141.87 27.17 141.82 52.10 141.93 77.03 C 141.62 78.59 143.16 79.19 144.23 79.81 C 165.66 91.65 187.33 103.04 208.81 114.77 C 197.09 134.64 185.99 154.88 174.40 174.82 C 151.74 162.78 128.92 151.01 106.75 138.07 C 83.85 150.27 61.15 162.88 38.09 174.81 C 28.14 157.48 18.28 140.09 8.40 122.72 C 6.89 119.94 5.06 117.33 3.93 114.36 C 25.10 103.64 45.60 91.64 66.75 80.85 C 68.34 80.06 69.87 79.16 71.33 78.14 C 71.02 52.85 71.31 27.55 71.18 2.26 M 74.25 78.73 C 83.18 97.02 93.93 114.35 103.88 132.09 C 104.63 133.49 105.52 134.81 106.50 136.06 C 116.91 116.89 128.71 98.47 138.16 78.78 C 116.86 78.62 95.56 78.72 74.25 78.73 Z" />
<path fill="#324551" opacity="1.00" d=" M 253.29 36.07 C 265.89 35.94 278.50 35.97 291.11 36.05 C 301.70 36.59 313.71 35.33 322.47 42.54 C 331.76 49.51 335.05 61.90 333.76 73.03 C 333.16 82.30 327.94 91.07 320.09 96.03 C 315.32 99.19 309.63 100.66 303.97 101.04 C 294.21 101.99 284.40 101.25 274.62 101.61 C 274.57 114.86 274.89 128.13 274.46 141.37 C 267.49 141.20 260.51 141.19 253.55 141.37 C 253.04 106.29 253.56 71.17 253.29 36.07 M 274.65 54.00 C 274.57 63.84 274.81 73.68 274.53 83.51 C 282.68 83.94 290.90 83.94 299.03 83.07 C 306.06 82.41 312.11 76.21 312.03 69.04 C 312.78 61.88 306.69 55.69 299.90 54.66 C 291.54 53.49 283.06 54.20 274.65 54.00 Z" />
<path fill="#324551" opacity="1.00" d=" M 343.87 36.00 C 371.71 36.00 399.55 36.00 427.39 36.00 C 427.40 42.00 427.39 48.00 427.39 54.00 C 417.01 54.02 406.62 53.96 396.24 54.04 C 396.30 83.11 396.25 112.18 396.26 141.26 C 389.17 141.27 382.08 141.26 375.00 141.26 C 375.00 112.17 375.00 83.09 375.00 54.00 C 364.62 54.00 354.25 54.00 343.87 54.00 C 343.87 48.00 343.86 42.00 343.87 36.00 Z" />
<path fill="#324551" opacity="1.00" d=" M 506.29 36.06 C 524.15 36.13 542.06 35.47 559.89 36.78 C 570.70 37.14 580.63 44.55 584.51 54.55 C 587.36 61.98 587.65 70.26 585.97 77.99 C 583.40 89.33 573.50 98.42 562.09 100.38 C 550.69 102.24 539.12 101.24 527.64 101.58 C 527.53 114.84 527.93 128.12 527.44 141.37 C 520.48 141.19 513.51 141.21 506.54 141.36 C 506.05 106.28 506.55 71.16 506.29 36.06 M 527.65 54.01 C 527.58 63.85 527.80 73.69 527.54 83.53 C 535.68 83.92 543.89 83.95 552.01 83.07 C 559.05 82.42 565.11 76.21 565.03 69.04 C 565.78 61.86 559.66 55.67 552.85 54.65 C 544.51 53.49 536.05 54.19 527.65 54.01 Z" />
<path fill="#324551" opacity="1.00" d=" M 623.82 35.93 C 631.24 36.07 638.66 35.98 646.09 35.99 C 660.16 71.07 674.19 106.15 688.24 141.23 C 680.53 141.29 672.83 141.27 665.13 141.24 C 662.09 133.34 659.06 125.43 656.01 117.54 C 641.98 117.51 627.96 117.53 613.94 117.53 C 611.00 125.43 608.23 133.41 605.23 141.29 C 597.73 141.22 590.22 141.29 582.73 141.25 C 596.37 106.13 609.99 70.99 623.82 35.93 M 634.52 60.89 C 629.91 73.83 625.22 86.74 620.44 99.62 C 629.98 99.89 639.53 99.64 649.07 99.75 C 644.27 86.78 639.62 73.74 634.52 60.89 Z" />
<path fill="#324551" opacity="1.00" d=" M 697.61 36.00 C 704.71 36.01 711.82 35.98 718.93 36.01 C 718.94 51.56 718.85 67.11 718.97 82.66 C 733.36 67.18 747.57 51.52 761.92 35.99 C 771.44 36.02 780.96 35.98 790.49 36.01 C 777.36 49.77 764.12 63.43 750.84 77.06 C 764.65 98.50 778.70 119.79 792.49 141.25 C 783.32 141.27 774.14 141.28 764.97 141.25 C 755.40 124.82 745.75 108.43 736.15 92.03 C 730.47 97.77 724.76 103.50 719.26 109.40 C 718.45 119.91 719.15 130.65 718.92 141.25 C 711.81 141.28 704.71 141.26 697.61 141.26 C 697.60 106.17 697.61 71.09 697.61 36.00 Z" />
<path fill="#324551" opacity="1.00" d=" M 803.31 36.05 C 829.33 35.94 855.36 36.04 881.39 36.00 C 881.39 42.00 881.39 48.00 881.39 54.00 C 862.48 54.00 843.57 53.99 824.66 54.00 C 824.66 61.74 824.63 69.47 824.67 77.21 C 842.22 77.21 859.78 77.25 877.33 77.19 C 877.46 83.12 877.36 89.06 877.39 95.00 C 859.81 95.00 842.23 94.99 824.66 95.00 C 824.65 104.49 824.65 113.97 824.65 123.45 C 844.25 123.59 863.86 123.30 883.46 123.59 C 883.32 129.48 883.45 135.37 883.37 141.27 C 856.77 141.33 830.16 141.12 803.56 141.37 C 803.04 106.28 803.54 71.15 803.31 36.05 Z" />
<path fill="#324551" opacity="1.00" d=" M 901.27 36.11 C 915.51 35.87 929.77 36.04 944.02 36.02 C 954.79 36.59 966.71 35.52 976.12 41.81 C 988.46 50.64 990.82 69.49 982.96 82.01 C 978.02 89.80 968.87 93.49 960.09 94.78 C 964.13 98.07 968.70 100.79 972.09 104.85 C 979.00 113.21 984.26 122.77 990.15 131.84 C 991.98 135.04 994.34 137.95 995.82 141.34 C 987.88 141.16 979.95 141.32 972.02 141.26 C 970.44 141.64 969.77 140.04 969.04 139.05 C 962.77 129.64 956.58 120.19 950.10 110.92 C 946.70 106.18 943.30 100.74 937.53 98.66 C 932.73 97.14 927.62 97.57 922.66 97.54 C 922.50 112.15 922.93 126.77 922.45 141.37 C 915.47 141.19 908.49 141.22 901.52 141.35 C 901.06 106.28 901.57 71.18 901.27 36.11 M 922.66 54.00 C 922.65 62.82 922.65 71.64 922.66 80.46 C 931.09 80.46 939.52 80.53 947.96 80.43 C 952.46 80.13 957.49 80.23 961.20 77.22 C 965.79 73.49 966.45 66.61 964.46 61.35 C 962.49 56.47 957.01 54.20 952.05 54.06 C 942.25 53.93 932.45 54.03 922.66 54.00 Z" />
<path fill="#324551" opacity="1.00" d=" M 1006.74 36.00 C 1013.82 36.00 1020.91 36.00 1028.00 36.00 C 1028.00 71.09 1028.00 106.17 1028.00 141.26 C 1020.91 141.26 1013.83 141.27 1006.74 141.26 C 1006.73 106.17 1006.74 71.08 1006.74 36.00 Z" />
<path fill="#324551" opacity="1.00" d=" M 1048.61 36.00 C 1055.42 35.98 1062.25 36.06 1069.07 35.94 C 1082.03 56.72 1094.70 77.69 1107.54 98.55 C 1109.02 100.83 1110.15 103.39 1112.13 105.31 C 1112.32 82.22 1112.19 59.12 1112.19 36.03 C 1118.79 35.96 1125.39 36.02 1132.00 36.00 C 1131.99 71.09 1132.00 106.17 1132.00 141.26 C 1124.94 141.30 1117.89 141.19 1110.84 141.32 C 1096.48 118.59 1082.56 95.58 1068.27 72.81 C 1068.25 95.63 1068.28 118.44 1068.25 141.26 C 1061.70 141.26 1055.15 141.27 1048.61 141.25 C 1048.60 106.17 1048.60 71.08 1048.61 36.00 Z" />
<path fill="#324551" opacity="1.00" d=" M 425.23 121.23 C 431.93 121.18 438.62 121.27 445.32 121.18 C 445.48 127.87 445.36 134.57 445.39 141.26 C 438.65 141.22 431.91 141.36 425.18 141.19 C 425.26 134.54 425.18 127.88 425.23 121.23 Z" />
</svg>
